<mxfile host="65bd71144e">
    <diagram id="47A9uAxiZOzFFANPaknb" name="Page-1">
        <mxGraphModel dx="1642" dy="619" grid="1" gridSize="10" guides="1" tooltips="1" connect="1" arrows="1" fold="1" page="1" pageScale="1" pageWidth="1169" pageHeight="827" math="0" shadow="0">
            <root>
                <mxCell id="0"/>
                <mxCell id="1" parent="0"/>
                <mxCell id="3w2-4T_P9E0XPDDwTUcy-27" value="&lt;div&gt;&lt;span style=&quot;font-weight: normal&quot;&gt;&amp;lt;&amp;lt;interface&amp;gt;&amp;gt;&lt;/span&gt;&lt;br&gt;&lt;/div&gt;&lt;div&gt;ContactRepository&lt;/div&gt;" style="swimlane;fontStyle=1;align=center;verticalAlign=middle;childLayout=stackLayout;horizontal=1;startSize=55;horizontalStack=0;resizeParent=1;resizeParentMax=0;resizeLast=0;collapsible=0;marginBottom=0;html=1;" parent="1" vertex="1">
                    <mxGeometry x="570" y="237.5" width="130" height="55" as="geometry"/>
                </mxCell>
                <mxCell id="3w2-4T_P9E0XPDDwTUcy-35" value="MongoRepository" style="swimlane;fontStyle=1;align=center;verticalAlign=middle;childLayout=stackLayout;horizontal=1;startSize=55;horizontalStack=0;resizeParent=1;resizeParentMax=0;resizeLast=0;collapsible=0;marginBottom=0;html=1;" parent="1" vertex="1">
                    <mxGeometry x="570" y="50" width="130" height="55" as="geometry"/>
                </mxCell>
                <mxCell id="3w2-4T_P9E0XPDDwTUcy-36" value="&lt;span style=&quot;font-weight: normal&quot;&gt;&amp;lt;&amp;lt;interface&amp;gt;&amp;gt;&lt;/span&gt;&lt;br&gt;&lt;div&gt;ContactService&lt;br&gt;&lt;/div&gt;" style="swimlane;fontStyle=1;align=center;verticalAlign=middle;childLayout=stackLayout;horizontal=1;startSize=55;horizontalStack=0;resizeParent=1;resizeParentMax=0;resizeLast=0;collapsible=0;marginBottom=0;html=1;" parent="1" vertex="1">
                    <mxGeometry x="325" y="50" width="130" height="55" as="geometry"/>
                </mxCell>
                <mxCell id="3w2-4T_P9E0XPDDwTUcy-37" value="ContactServiceImpl" style="swimlane;fontStyle=1;align=center;verticalAlign=middle;childLayout=stackLayout;horizontal=1;startSize=40;horizontalStack=0;resizeParent=1;resizeParentMax=0;resizeLast=0;collapsible=0;marginBottom=0;html=1;" parent="1" vertex="1">
                    <mxGeometry x="270" y="150" width="240" height="230" as="geometry"/>
                </mxCell>
                <mxCell id="3w2-4T_P9E0XPDDwTUcy-83" value="contactRepository: ContactRepository" style="text;align=left;verticalAlign=top;spacingLeft=4;spacingRight=4;overflow=hidden;rotatable=0;points=[[0,0.5],[1,0.5]];portConstraint=eastwest;rounded=0;shadow=0;html=0;" parent="3w2-4T_P9E0XPDDwTUcy-37" vertex="1">
                    <mxGeometry y="40" width="240" height="26" as="geometry"/>
                </mxCell>
                <mxCell id="3w2-4T_P9E0XPDDwTUcy-80" value="" style="line;strokeWidth=1;fillColor=none;align=left;verticalAlign=middle;spacingTop=-1;spacingLeft=3;spacingRight=3;rotatable=0;labelPosition=right;points=[];portConstraint=eastwest;fontSize=13;" parent="3w2-4T_P9E0XPDDwTUcy-37" vertex="1">
                    <mxGeometry y="66" width="240" height="8" as="geometry"/>
                </mxCell>
                <mxCell id="3w2-4T_P9E0XPDDwTUcy-49" value="getAllContacts(): List&lt;Contact&gt;" style="text;align=left;verticalAlign=top;spacingLeft=4;spacingRight=4;overflow=hidden;rotatable=0;points=[[0,0.5],[1,0.5]];portConstraint=eastwest;rounded=0;shadow=0;html=0;" parent="3w2-4T_P9E0XPDDwTUcy-37" vertex="1">
                    <mxGeometry y="74" width="240" height="26" as="geometry"/>
                </mxCell>
                <mxCell id="3w2-4T_P9E0XPDDwTUcy-2" value="getContact(id: String): Optional&lt;Contact&gt;" style="text;align=left;verticalAlign=top;spacingLeft=4;spacingRight=4;overflow=hidden;rotatable=0;points=[[0,0.5],[1,0.5]];portConstraint=eastwest;" parent="3w2-4T_P9E0XPDDwTUcy-37" vertex="1">
                    <mxGeometry y="100" width="240" height="26" as="geometry"/>
                </mxCell>
                <mxCell id="3w2-4T_P9E0XPDDwTUcy-6" value="saveContact(contact: Contact): Contact" style="text;align=left;verticalAlign=top;spacingLeft=4;spacingRight=4;overflow=hidden;rotatable=0;points=[[0,0.5],[1,0.5]];portConstraint=eastwest;rounded=0;shadow=0;html=0;" parent="3w2-4T_P9E0XPDDwTUcy-37" vertex="1">
                    <mxGeometry y="126" width="240" height="26" as="geometry"/>
                </mxCell>
                <mxCell id="3w2-4T_P9E0XPDDwTUcy-76" value="replaceContact(contact: Contact): Contact" style="text;align=left;verticalAlign=top;spacingLeft=4;spacingRight=4;overflow=hidden;rotatable=0;points=[[0,0.5],[1,0.5]];portConstraint=eastwest;rounded=0;shadow=0;html=0;" parent="3w2-4T_P9E0XPDDwTUcy-37" vertex="1">
                    <mxGeometry y="152" width="240" height="26" as="geometry"/>
                </mxCell>
                <mxCell id="3w2-4T_P9E0XPDDwTUcy-77" value="deleteContact(id: String)" style="text;align=left;verticalAlign=top;spacingLeft=4;spacingRight=4;overflow=hidden;rotatable=0;points=[[0,0.5],[1,0.5]];portConstraint=eastwest;rounded=0;shadow=0;html=0;" parent="3w2-4T_P9E0XPDDwTUcy-37" vertex="1">
                    <mxGeometry y="178" width="240" height="26" as="geometry"/>
                </mxCell>
                <mxCell id="3w2-4T_P9E0XPDDwTUcy-5" value="deleteAllContacts()" style="text;align=left;verticalAlign=top;spacingLeft=4;spacingRight=4;overflow=hidden;rotatable=0;points=[[0,0.5],[1,0.5]];portConstraint=eastwest;rounded=0;shadow=0;html=0;" parent="3w2-4T_P9E0XPDDwTUcy-37" vertex="1">
                    <mxGeometry y="204" width="240" height="26" as="geometry"/>
                </mxCell>
                <mxCell id="3w2-4T_P9E0XPDDwTUcy-40" value="" style="endArrow=block;startArrow=none;endFill=0;startFill=0;endSize=8;html=1;verticalAlign=bottom;dashed=1;labelBackgroundColor=none;rounded=0;fontSize=13;strokeWidth=1.5;entryX=0.5;entryY=1;entryDx=0;entryDy=0;exitX=0.5;exitY=0;exitDx=0;exitDy=0;" parent="1" source="3w2-4T_P9E0XPDDwTUcy-37" target="3w2-4T_P9E0XPDDwTUcy-36" edge="1">
                    <mxGeometry width="160" relative="1" as="geometry">
                        <mxPoint x="330" y="350" as="sourcePoint"/>
                        <mxPoint x="490" y="350" as="targetPoint"/>
                    </mxGeometry>
                </mxCell>
                <mxCell id="3w2-4T_P9E0XPDDwTUcy-41" value="" style="endArrow=block;html=1;rounded=0;align=center;verticalAlign=bottom;endFill=0;labelBackgroundColor=none;endSize=8;fontSize=13;strokeWidth=1.5;entryX=0.5;entryY=1;entryDx=0;entryDy=0;" parent="1" source="3w2-4T_P9E0XPDDwTUcy-27" target="3w2-4T_P9E0XPDDwTUcy-35" edge="1">
                    <mxGeometry relative="1" as="geometry">
                        <mxPoint x="330" y="350" as="sourcePoint"/>
                        <mxPoint x="620" y="360" as="targetPoint"/>
                    </mxGeometry>
                </mxCell>
                <mxCell id="3w2-4T_P9E0XPDDwTUcy-43" value="ContactController" style="swimlane;fontStyle=1;align=center;verticalAlign=middle;childLayout=stackLayout;horizontal=1;startSize=55;horizontalStack=0;resizeParent=1;resizeParentMax=0;resizeLast=0;collapsible=0;marginBottom=0;html=1;" parent="1" vertex="1">
                    <mxGeometry x="80" y="50" width="130" height="55" as="geometry"/>
                </mxCell>
                <mxCell id="3w2-4T_P9E0XPDDwTUcy-44" value="&amp;lt;&amp;lt;use&amp;gt;&amp;gt;" style="endArrow=open;startArrow=none;endFill=0;startFill=0;endSize=8;html=1;verticalAlign=bottom;dashed=1;labelBackgroundColor=none;rounded=0;fontSize=13;strokeWidth=1.5;exitX=1;exitY=0.5;exitDx=0;exitDy=0;entryX=0;entryY=0.5;entryDx=0;entryDy=0;" parent="1" source="3w2-4T_P9E0XPDDwTUcy-43" target="3w2-4T_P9E0XPDDwTUcy-36" edge="1">
                    <mxGeometry width="160" relative="1" as="geometry">
                        <mxPoint x="720" y="295" as="sourcePoint"/>
                        <mxPoint x="600" y="12.5" as="targetPoint"/>
                    </mxGeometry>
                </mxCell>
                <mxCell id="3w2-4T_P9E0XPDDwTUcy-45" value="&amp;lt;&amp;lt;use&amp;gt;&amp;gt;" style="endArrow=open;startArrow=none;endFill=0;startFill=0;endSize=8;html=1;verticalAlign=bottom;dashed=1;labelBackgroundColor=none;rounded=0;fontSize=13;strokeWidth=1.5;exitX=1;exitY=0.5;exitDx=0;exitDy=0;entryX=0;entryY=0.5;entryDx=0;entryDy=0;" parent="1" source="3w2-4T_P9E0XPDDwTUcy-37" target="3w2-4T_P9E0XPDDwTUcy-27" edge="1">
                    <mxGeometry width="160" relative="1" as="geometry">
                        <mxPoint x="400" y="260" as="sourcePoint"/>
                        <mxPoint x="320" y="260" as="targetPoint"/>
                    </mxGeometry>
                </mxCell>
                <mxCell id="3" value="&lt;div&gt;&lt;span style=&quot;font-weight: normal&quot;&gt;&amp;lt;&amp;lt;Entity&amp;gt;&amp;gt;&lt;/span&gt;&lt;br&gt;&lt;/div&gt;&lt;div&gt;Contact&lt;/div&gt;" style="swimlane;fontStyle=1;align=center;verticalAlign=middle;childLayout=stackLayout;horizontal=1;startSize=55;horizontalStack=0;resizeParent=1;resizeParentMax=0;resizeLast=0;collapsible=0;marginBottom=0;html=1;" parent="1" vertex="1">
                    <mxGeometry x="80" y="237.5" width="130" height="55" as="geometry"/>
                </mxCell>
                <mxCell id="5" value="&amp;lt;&amp;lt;use&amp;gt;&amp;gt;" style="endArrow=open;startArrow=none;endFill=0;startFill=0;endSize=8;html=1;verticalAlign=bottom;dashed=1;labelBackgroundColor=none;rounded=0;fontSize=13;strokeWidth=1.5;entryX=1;entryY=0.5;entryDx=0;entryDy=0;" parent="1" target="3" edge="1">
                    <mxGeometry width="160" relative="1" as="geometry">
                        <mxPoint x="270" y="265" as="sourcePoint"/>
                        <mxPoint x="190" y="380" as="targetPoint"/>
                    </mxGeometry>
                </mxCell>
            </root>
        </mxGraphModel>
    </diagram>
</mxfile>